<svg width="42" height="42" viewBox="0 0 42 42" fill="none" xmlns="http://www.w3.org/2000/svg">
<path fill-rule="evenodd" clip-rule="evenodd" d="M21 42C32.598 42 42 32.598 42 21C42 9.40198 32.598 0 21 0C9.40204 0 0 9.40198 0 21C0 32.598 9.40204 42 21 42ZM4.85632 24.4453C4.73383 24.4473 4.61224 24.4237 4.49927 24.3763C4.38635 24.3289 4.28442 24.2585 4.20007 24.1697C4.11334 24.0841 4.04486 23.9818 3.9986 23.869C3.96747 23.793 3.94684 23.7134 3.93719 23.6322C3.93256 23.5929 3.93048 23.5532 3.93097 23.5134C3.93011 23.3917 3.95343 23.271 3.99963 23.1583C4.04584 23.0457 4.11395 22.9434 4.20007 22.8572C4.24432 22.8093 4.29364 22.7667 4.34698 22.73C4.39441 22.6974 4.44507 22.6693 4.49823 22.6465C4.61127 22.5979 4.73328 22.5735 4.85632 22.5751C4.97919 22.5747 5.10077 22.5996 5.21368 22.6482C5.32654 22.6967 5.42822 22.7678 5.51257 22.8572C5.60016 22.9425 5.66968 23.0446 5.71704 23.1573C5.76434 23.27 5.78857 23.3912 5.78815 23.5134C5.78857 23.5588 5.78558 23.604 5.77917 23.6487C5.76837 23.7246 5.74786 23.7991 5.71808 23.87C5.67065 23.9829 5.60077 24.0848 5.51257 24.1697C5.42743 24.2576 5.32544 24.3273 5.21265 24.3746C5.09985 24.4221 4.97864 24.446 4.85632 24.4453ZM16.1766 24.2812H17.8959V12.3179H16.4982V20.731C16.4857 21.3185 16.5142 21.9061 16.5834 22.4897H16.5507C16.4763 22.3453 16.3144 22.0785 16.065 21.6891L10.08 12.3179H8.26221V24.2812H9.66003V15.6318C9.67474 15.0841 9.65283 14.536 9.59442 13.9912H9.64691C9.74677 14.2534 9.87433 14.5043 10.0275 14.7394L16.1766 24.2812ZM27.3591 24.2812H21V12.3179H27.0637V13.5844H22.4306V17.5613H26.7488V18.8213H22.4306V22.9688H27.3656L27.3591 24.2812ZM33.2719 13.5844H36.75V12.3179H28.4353V13.5844H31.874V24.2812H33.2719V13.5844ZM17.1412 32.4188C16.6674 32.6482 16.1448 32.7587 15.6187 32.7404C15.2691 32.7561 14.9202 32.6969 14.5953 32.5668C14.2705 32.4365 13.9773 32.2384 13.7353 31.9856C13.2531 31.4459 12.999 30.7401 13.0266 30.0168C13.0089 29.6252 13.0701 29.2341 13.2065 28.8666C13.3429 28.4991 13.5517 28.1627 13.8206 27.8776C14.0826 27.6091 14.3976 27.3981 14.7456 27.2581C15.0936 27.1179 15.4669 27.0518 15.8419 27.0637C16.2905 27.0485 16.7375 27.1267 17.1544 27.2935V27.9497C16.7531 27.7275 16.3005 27.6144 15.8419 27.6216C15.5527 27.6134 15.2652 27.6678 14.999 27.7811C14.7328 27.8944 14.4943 28.0638 14.2997 28.2778C13.8904 28.7441 13.6786 29.3513 13.709 29.9709C13.6784 30.558 13.8759 31.134 14.2603 31.5787C14.4446 31.777 14.6697 31.9331 14.92 32.0361C15.1704 32.1392 15.4401 32.1869 15.7106 32.1759C16.2145 32.1892 16.7121 32.0619 17.1478 31.8085L17.1412 32.4188ZM19.063 32.6002C19.3041 32.7009 19.5641 32.7488 19.8254 32.7404C20.0916 32.7483 20.3565 32.6991 20.6022 32.5962C20.8478 32.4932 21.0685 32.3386 21.2495 32.1431C21.6176 31.7291 21.8085 31.1871 21.781 30.6338C21.8135 30.0885 21.6376 29.5513 21.2888 29.131C21.113 28.9465 20.8994 28.8024 20.6627 28.7084C20.4259 28.6144 20.1716 28.5726 19.9172 28.5862C19.6481 28.5741 19.3794 28.6174 19.1277 28.7134C18.8759 28.8093 18.6466 28.9559 18.4538 29.144C18.2649 29.3533 18.1194 29.5979 18.0259 29.8638C17.9324 30.1296 17.8927 30.4114 17.9091 30.6927C17.8824 31.2299 18.0687 31.7557 18.4276 32.1562C18.6051 32.348 18.8218 32.4994 19.063 32.6002ZM19.345 29.2478C19.5109 29.1763 19.6908 29.1431 19.8713 29.1506C20.0485 29.1414 20.2255 29.1732 20.3883 29.2438C20.5511 29.3145 20.6954 29.4218 20.8098 29.5575C21.0478 29.8862 21.1638 30.2877 21.1379 30.6927C21.1645 31.0959 21.0483 31.4955 20.8098 31.8215C20.7681 31.8693 20.7228 31.9133 20.6742 31.9534C20.5875 32.0249 20.4905 32.0836 20.3862 32.1273C20.2236 32.1956 20.0474 32.2257 19.8713 32.2153C19.6914 32.2228 19.5121 32.1902 19.3464 32.1198C19.1807 32.0494 19.0327 31.943 18.9131 31.8085C18.6622 31.4977 18.5359 31.1047 18.5588 30.7059C18.5347 30.2949 18.6606 29.8892 18.9131 29.5641C19.0315 29.4275 19.1791 29.3195 19.345 29.2478ZM24.8456 29.3475C24.7039 29.2546 24.5356 29.2108 24.3666 29.2228C24.286 29.2257 24.2066 29.2407 24.131 29.267C24.0825 29.2838 24.0356 29.3053 23.991 29.3312C23.8765 29.3976 23.7802 29.4911 23.7103 29.6034C23.515 29.9127 23.421 30.2751 23.4413 30.6404V32.6484H22.785V28.7109H23.4413V29.5312C23.5134 29.2775 23.6569 29.0497 23.8547 28.875C24.0259 28.7264 24.245 28.6449 24.4716 28.6454C24.5057 28.6438 24.5397 28.6439 24.5737 28.6458C24.6661 28.6509 24.7576 28.6683 24.8456 28.6979V29.3475ZM25.9153 30.8438H28.6912L28.6846 30.5024C28.7159 30.0034 28.5668 29.5096 28.2646 29.1112C28.162 28.9951 28.0421 28.896 27.9095 28.8174C27.8503 28.7823 27.7886 28.7513 27.7247 28.7247C27.5179 28.6383 27.2941 28.6 27.0703 28.6125C26.8224 28.6055 26.576 28.6537 26.3491 28.7535C26.1221 28.8534 25.9201 29.0024 25.7578 29.1899C25.4011 29.6047 25.2158 30.1398 25.2393 30.6863C25.206 31.2314 25.3768 31.7695 25.7184 32.1957C25.8841 32.3763 26.0877 32.5182 26.3146 32.6112C26.5414 32.7042 26.786 32.7461 27.0309 32.7338C27.5162 32.7582 27.9967 32.6271 28.4025 32.3597V31.769C28.0569 32.0493 27.6267 32.2043 27.1818 32.2087C27.0103 32.2186 26.8386 32.1921 26.678 32.131C26.5175 32.0699 26.3716 31.9757 26.2499 31.8544C26.0161 31.5712 25.8967 31.2106 25.9153 30.8438ZM27.7725 29.4656C27.9555 29.7089 28.0483 30.0081 28.035 30.3121L25.9087 30.3187C25.944 30.0063 26.0799 29.7137 26.2959 29.4854C26.3925 29.3822 26.5095 29.3004 26.6394 29.2451C26.7693 29.1897 26.9094 29.162 27.0506 29.1637C27.1859 29.1564 27.3211 29.1798 27.4461 29.2321C27.5184 29.2623 27.5862 29.3018 27.6479 29.3492C27.6929 29.3839 27.7346 29.4229 27.7725 29.4656Z" fill="url(#paint0_linear_2083_17)"/>
<defs>
<linearGradient id="paint0_linear_2083_17" x1="21" y1="0" x2="21" y2="42" gradientUnits="userSpaceOnUse">
<stop stop-color="#FDFDFD"/>
<stop offset="1" stop-color="white" stop-opacity="0.18"/>
</linearGradient>
</defs>
</svg>
