<svg xmlns="http://www.w3.org/2000/svg" xmlns:xlink="http://www.w3.org/1999/xlink" width="500" zoomAndPan="magnify" viewBox="0 0 375 374.999991" height="500" preserveAspectRatio="xMidYMid meet" version="1.0"><defs><g/></defs><g fill="#ff00ff" fill-opacity="1"><g transform="translate(64.109533, 179.633608)"><g><path d="M 6.4375 -6.4375 L 0 -6.4375 L 0 -12.859375 L 12.859375 -12.859375 L 12.859375 -6.4375 L 25.6875 -6.4375 L 25.6875 -19.25 L 6.4375 -19.25 L 6.4375 -25.6875 L 0 -25.6875 L 0 -38.546875 L 6.4375 -38.546875 L 6.4375 -44.984375 L 32.125 -44.984375 L 32.125 -38.546875 L 38.546875 -38.546875 L 38.546875 -32.125 L 25.6875 -32.125 L 25.6875 -38.546875 L 12.859375 -38.546875 L 12.859375 -25.6875 L 32.125 -25.6875 L 32.125 -19.25 L 38.546875 -19.25 L 38.546875 -6.4375 L 32.125 -6.4375 L 32.125 0 L 6.4375 0 Z M 6.4375 -6.4375 "/></g></g></g><g fill="#ff00ff" fill-opacity="1"><g transform="translate(113.577773, 179.633608)"><g><path d="M 0 -44.984375 L 12.859375 -44.984375 L 12.859375 0 L 0 0 Z M 0 -44.984375 "/></g></g></g><g fill="#ff00ff" fill-opacity="1"><g transform="translate(137.329654, 179.633608)"><g><path d="M 32.125 -25.6875 L 32.125 -44.984375 L 51.375 -44.984375 L 51.375 0 L 38.515625 0 L 38.515625 -19.25 L 32.125 -19.25 L 32.125 0 L 19.25 0 L 19.25 -19.25 L 12.859375 -19.25 L 12.859375 0 L 0 0 L 0 -44.984375 L 19.25 -44.984375 L 19.25 -25.6875 Z M 32.125 -25.6875 "/></g></g></g><g fill="#ff00ff" fill-opacity="1"><g transform="translate(199.624712, 179.633608)"><g><path d="M 6.4375 -32.125 L 6.4375 -38.546875 L 12.859375 -38.546875 L 12.859375 -44.984375 L 38.546875 -44.984375 L 38.546875 -38.546875 L 44.984375 -38.546875 L 44.984375 -32.125 L 51.375 -32.125 L 51.375 -12.859375 L 44.984375 -12.859375 L 44.984375 -6.4375 L 38.546875 -6.4375 L 38.546875 0 L 12.859375 0 L 12.859375 -6.4375 L 6.4375 -6.4375 L 6.4375 -12.859375 L 0 -12.859375 L 0 -32.125 Z M 32.125 -32.125 L 32.125 -38.546875 L 19.25 -38.546875 L 19.25 -32.1875 L 12.859375 -32.1875 L 12.859375 -12.796875 L 19.25 -12.796875 L 19.25 -6.4375 L 32.125 -6.4375 L 32.125 -12.859375 L 38.546875 -12.859375 L 38.546875 -32.125 Z M 32.125 -32.125 "/></g></g></g><g fill="#ff00ff" fill-opacity="1"><g transform="translate(261.91977, 179.633608)"><g><path d="M 44.984375 -44.984375 L 44.984375 0 L 32.125 0 L 32.125 -12.859375 L 25.6875 -12.859375 L 25.6875 -19.25 L 19.25 -19.25 L 19.25 -25.6875 L 12.859375 -25.6875 L 12.859375 0 L 0 0 L 0 -44.984375 L 12.859375 -44.984375 L 12.859375 -38.546875 L 19.25 -38.546875 L 19.25 -32.125 L 25.6875 -32.125 L 25.6875 -25.6875 L 32.125 -25.6875 L 32.125 -44.984375 Z M 44.984375 -44.984375 "/></g></g></g><g fill="#00ffff" fill-opacity="1"><g transform="translate(61.700978, 179.633608)"><g><path d="M 6.4375 -6.4375 L 0 -6.4375 L 0 -12.859375 L 12.859375 -12.859375 L 12.859375 -6.4375 L 25.6875 -6.4375 L 25.6875 -19.25 L 6.4375 -19.25 L 6.4375 -25.6875 L 0 -25.6875 L 0 -38.546875 L 6.4375 -38.546875 L 6.4375 -44.984375 L 32.125 -44.984375 L 32.125 -38.546875 L 38.546875 -38.546875 L 38.546875 -32.125 L 25.6875 -32.125 L 25.6875 -38.546875 L 12.859375 -38.546875 L 12.859375 -25.6875 L 32.125 -25.6875 L 32.125 -19.25 L 38.546875 -19.25 L 38.546875 -6.4375 L 32.125 -6.4375 L 32.125 0 L 6.4375 0 Z M 6.4375 -6.4375 "/></g></g></g><g fill="#00ffff" fill-opacity="1"><g transform="translate(111.169218, 179.633608)"><g><path d="M 0 -44.984375 L 12.859375 -44.984375 L 12.859375 0 L 0 0 Z M 0 -44.984375 "/></g></g></g><g fill="#00ffff" fill-opacity="1"><g transform="translate(134.921099, 179.633608)"><g><path d="M 32.125 -25.6875 L 32.125 -44.984375 L 51.375 -44.984375 L 51.375 0 L 38.515625 0 L 38.515625 -19.25 L 32.125 -19.25 L 32.125 0 L 19.25 0 L 19.25 -19.25 L 12.859375 -19.25 L 12.859375 0 L 0 0 L 0 -44.984375 L 19.25 -44.984375 L 19.25 -25.6875 Z M 32.125 -25.6875 "/></g></g></g><g fill="#00ffff" fill-opacity="1"><g transform="translate(197.216157, 179.633608)"><g><path d="M 6.4375 -32.125 L 6.4375 -38.546875 L 12.859375 -38.546875 L 12.859375 -44.984375 L 38.546875 -44.984375 L 38.546875 -38.546875 L 44.984375 -38.546875 L 44.984375 -32.125 L 51.375 -32.125 L 51.375 -12.859375 L 44.984375 -12.859375 L 44.984375 -6.4375 L 38.546875 -6.4375 L 38.546875 0 L 12.859375 0 L 12.859375 -6.4375 L 6.4375 -6.4375 L 6.4375 -12.859375 L 0 -12.859375 L 0 -32.125 Z M 32.125 -32.125 L 32.125 -38.546875 L 19.25 -38.546875 L 19.25 -32.1875 L 12.859375 -32.1875 L 12.859375 -12.796875 L 19.25 -12.796875 L 19.25 -6.4375 L 32.125 -6.4375 L 32.125 -12.859375 L 38.546875 -12.859375 L 38.546875 -32.125 Z M 32.125 -32.125 "/></g></g></g><g fill="#00ffff" fill-opacity="1"><g transform="translate(259.511216, 179.633608)"><g><path d="M 44.984375 -44.984375 L 44.984375 0 L 32.125 0 L 32.125 -12.859375 L 25.6875 -12.859375 L 25.6875 -19.25 L 19.25 -19.25 L 19.25 -25.6875 L 12.859375 -25.6875 L 12.859375 0 L 0 0 L 0 -44.984375 L 12.859375 -44.984375 L 12.859375 -38.546875 L 19.25 -38.546875 L 19.25 -32.125 L 25.6875 -32.125 L 25.6875 -25.6875 L 32.125 -25.6875 L 32.125 -44.984375 Z M 44.984375 -44.984375 "/></g></g></g><g fill="#ffffff" fill-opacity="1"><g transform="translate(62.905256, 179.633608)"><g><path d="M 6.4375 -6.4375 L 0 -6.4375 L 0 -12.859375 L 12.859375 -12.859375 L 12.859375 -6.4375 L 25.6875 -6.4375 L 25.6875 -19.25 L 6.4375 -19.25 L 6.4375 -25.6875 L 0 -25.6875 L 0 -38.546875 L 6.4375 -38.546875 L 6.4375 -44.984375 L 32.125 -44.984375 L 32.125 -38.546875 L 38.546875 -38.546875 L 38.546875 -32.125 L 25.6875 -32.125 L 25.6875 -38.546875 L 12.859375 -38.546875 L 12.859375 -25.6875 L 32.125 -25.6875 L 32.125 -19.25 L 38.546875 -19.25 L 38.546875 -6.4375 L 32.125 -6.4375 L 32.125 0 L 6.4375 0 Z M 6.4375 -6.4375 "/></g></g></g><g fill="#ffffff" fill-opacity="1"><g transform="translate(112.373496, 179.633608)"><g><path d="M 0 -44.984375 L 12.859375 -44.984375 L 12.859375 0 L 0 0 Z M 0 -44.984375 "/></g></g></g><g fill="#ffffff" fill-opacity="1"><g transform="translate(136.125376, 179.633608)"><g><path d="M 32.125 -25.6875 L 32.125 -44.984375 L 51.375 -44.984375 L 51.375 0 L 38.515625 0 L 38.515625 -19.25 L 32.125 -19.25 L 32.125 0 L 19.25 0 L 19.25 -19.25 L 12.859375 -19.25 L 12.859375 0 L 0 0 L 0 -44.984375 L 19.25 -44.984375 L 19.25 -25.6875 Z M 32.125 -25.6875 "/></g></g></g><g fill="#ffffff" fill-opacity="1"><g transform="translate(198.420435, 179.633608)"><g><path d="M 6.4375 -32.125 L 6.4375 -38.546875 L 12.859375 -38.546875 L 12.859375 -44.984375 L 38.546875 -44.984375 L 38.546875 -38.546875 L 44.984375 -38.546875 L 44.984375 -32.125 L 51.375 -32.125 L 51.375 -12.859375 L 44.984375 -12.859375 L 44.984375 -6.4375 L 38.546875 -6.4375 L 38.546875 0 L 12.859375 0 L 12.859375 -6.4375 L 6.4375 -6.4375 L 6.4375 -12.859375 L 0 -12.859375 L 0 -32.125 Z M 32.125 -32.125 L 32.125 -38.546875 L 19.25 -38.546875 L 19.25 -32.1875 L 12.859375 -32.1875 L 12.859375 -12.796875 L 19.25 -12.796875 L 19.25 -6.4375 L 32.125 -6.4375 L 32.125 -12.859375 L 38.546875 -12.859375 L 38.546875 -32.125 Z M 32.125 -32.125 "/></g></g></g><g fill="#ffffff" fill-opacity="1"><g transform="translate(260.715493, 179.633608)"><g><path d="M 44.984375 -44.984375 L 44.984375 0 L 32.125 0 L 32.125 -12.859375 L 25.6875 -12.859375 L 25.6875 -19.25 L 19.25 -19.25 L 19.25 -25.6875 L 12.859375 -25.6875 L 12.859375 0 L 0 0 L 0 -44.984375 L 12.859375 -44.984375 L 12.859375 -38.546875 L 19.25 -38.546875 L 19.25 -32.125 L 25.6875 -32.125 L 25.6875 -25.6875 L 32.125 -25.6875 L 32.125 -44.984375 Z M 44.984375 -44.984375 "/></g></g></g><g fill="#ff00ff" fill-opacity="1"><g transform="translate(40.126939, 237.72123)"><g><path d="M 23.28125 -23.28125 L 23.28125 -17.453125 L 5.828125 -17.453125 L 5.828125 0 L 0 0 L 0 -40.765625 L 23.28125 -40.765625 L 23.28125 -34.9375 L 29.109375 -34.9375 L 29.109375 -23.28125 Z M 5.828125 -23.28125 L 23.21875 -23.28125 L 23.21875 -34.9375 L 5.828125 -34.9375 Z M 5.828125 -23.28125 "/></g></g></g><g fill="#ff00ff" fill-opacity="1"><g transform="translate(80.891432, 237.72123)"><g><path d="M 5.828125 -11.65625 L 0 -11.65625 L 0 -29.109375 L 5.828125 -29.109375 L 5.828125 -34.9375 L 11.65625 -34.9375 L 11.65625 -40.765625 L 29.109375 -40.765625 L 29.109375 -34.9375 L 34.9375 -34.9375 L 34.9375 -29.109375 L 40.765625 -29.109375 L 40.765625 -11.65625 L 34.9375 -11.65625 L 34.9375 -5.828125 L 29.109375 -5.828125 L 29.109375 0 L 11.65625 0 L 11.65625 -5.828125 L 5.828125 -5.828125 Z M 11.65625 -5.890625 L 29.109375 -5.890625 L 29.109375 -11.65625 L 34.875 -11.65625 L 34.875 -29.109375 L 29.109375 -29.109375 L 29.109375 -34.875 L 11.65625 -34.875 L 11.65625 -29.109375 L 5.890625 -29.109375 L 5.890625 -11.65625 L 11.65625 -11.65625 Z M 11.65625 -5.890625 "/></g></g></g><g fill="#ff00ff" fill-opacity="1"><g transform="translate(133.282618, 237.72123)"><g><path d="M 29.109375 -17.484375 L 29.109375 -40.765625 L 34.9375 -40.765625 L 34.9375 0 L 29.109375 0 L 29.109375 -11.65625 L 23.28125 -11.65625 L 23.28125 -17.484375 L 17.484375 -17.484375 L 17.484375 -23.28125 L 11.65625 -23.28125 L 11.65625 -29.109375 L 5.828125 -29.109375 L 5.828125 0 L 0 0 L 0 -40.765625 L 5.828125 -40.765625 L 5.828125 -34.9375 L 11.65625 -34.9375 L 11.65625 -29.109375 L 17.484375 -29.109375 L 17.484375 -23.28125 L 23.28125 -23.28125 L 23.28125 -17.484375 Z M 29.109375 -17.484375 "/></g></g></g><g fill="#ff00ff" fill-opacity="1"><g transform="translate(179.846244, 237.72123)"><g><path d="M 0 -40.765625 L 5.828125 -40.765625 L 5.828125 0 L 0 0 Z M 0 -40.765625 "/></g></g></g><g fill="#ff00ff" fill-opacity="1"><g transform="translate(197.300497, 237.72123)"><g><path d="M 0 -40.765625 L 29.109375 -40.765625 L 29.109375 -34.9375 L 17.484375 -34.9375 L 17.484375 0 L 11.65625 0 L 11.65625 -34.9375 L 0 -34.9375 Z M 0 -40.765625 "/></g></g></g><g fill="#ff00ff" fill-opacity="1"><g transform="translate(238.06499, 237.72123)"><g><path d="M 0 0 L 0 -11.65625 L 5.828125 -11.65625 L 5.828125 -5.828125 L 29.109375 -5.828125 L 29.109375 0 Z M 23.28125 -34.9375 L 0 -34.9375 L 0 -40.765625 L 29.109375 -40.765625 L 29.109375 -29.109375 L 23.28125 -29.109375 Z M 17.453125 -23.28125 L 17.453125 -29.109375 L 23.28125 -29.109375 L 23.28125 -23.28125 Z M 5.828125 -17.484375 L 11.65625 -17.484375 L 11.65625 -11.65625 L 5.828125 -11.65625 Z M 11.65625 -17.453125 L 11.65625 -23.28125 L 17.484375 -23.28125 L 17.484375 -17.453125 Z M 11.65625 -17.453125 "/></g></g></g><g fill="#ff00ff" fill-opacity="1"><g transform="translate(278.829484, 237.72123)"><g><path d="M 5.828125 0 L 0 0 L 0 -40.765625 L 5.828125 -40.765625 L 5.828125 -23.28125 L 11.65625 -23.28125 L 11.65625 -29.109375 L 17.484375 -29.109375 L 17.484375 -17.453125 L 23.28125 -17.453125 L 23.28125 -11.65625 L 29.109375 -11.65625 L 29.109375 0 L 23.28125 0 L 23.28125 -11.65625 L 17.484375 -11.65625 L 17.484375 -17.453125 L 5.828125 -17.453125 Z M 23.28125 -34.9375 L 23.28125 -40.765625 L 29.109375 -40.765625 L 29.109375 -34.9375 Z M 17.453125 -34.9375 L 23.28125 -34.9375 L 23.28125 -29.109375 L 17.453125 -29.109375 Z M 17.453125 -34.9375 "/></g></g></g><g fill="#ff00ff" fill-opacity="1"><g transform="translate(319.593977, 237.72123)"><g><path d="M 0 -40.765625 L 5.828125 -40.765625 L 5.828125 0 L 0 0 Z M 0 -40.765625 "/></g></g></g><g fill="#00ffff" fill-opacity="1"><g transform="translate(37.943377, 237.72123)"><g><path d="M 23.28125 -23.28125 L 23.28125 -17.453125 L 5.828125 -17.453125 L 5.828125 0 L 0 0 L 0 -40.765625 L 23.28125 -40.765625 L 23.28125 -34.9375 L 29.109375 -34.9375 L 29.109375 -23.28125 Z M 5.828125 -23.28125 L 23.21875 -23.28125 L 23.21875 -34.9375 L 5.828125 -34.9375 Z M 5.828125 -23.28125 "/></g></g></g><g fill="#00ffff" fill-opacity="1"><g transform="translate(78.70787, 237.72123)"><g><path d="M 5.828125 -11.65625 L 0 -11.65625 L 0 -29.109375 L 5.828125 -29.109375 L 5.828125 -34.9375 L 11.65625 -34.9375 L 11.65625 -40.765625 L 29.109375 -40.765625 L 29.109375 -34.9375 L 34.9375 -34.9375 L 34.9375 -29.109375 L 40.765625 -29.109375 L 40.765625 -11.65625 L 34.9375 -11.65625 L 34.9375 -5.828125 L 29.109375 -5.828125 L 29.109375 0 L 11.65625 0 L 11.65625 -5.828125 L 5.828125 -5.828125 Z M 11.65625 -5.890625 L 29.109375 -5.890625 L 29.109375 -11.65625 L 34.875 -11.65625 L 34.875 -29.109375 L 29.109375 -29.109375 L 29.109375 -34.875 L 11.65625 -34.875 L 11.65625 -29.109375 L 5.890625 -29.109375 L 5.890625 -11.65625 L 11.65625 -11.65625 Z M 11.65625 -5.890625 "/></g></g></g><g fill="#00ffff" fill-opacity="1"><g transform="translate(131.099056, 237.72123)"><g><path d="M 29.109375 -17.484375 L 29.109375 -40.765625 L 34.9375 -40.765625 L 34.9375 0 L 29.109375 0 L 29.109375 -11.65625 L 23.28125 -11.65625 L 23.28125 -17.484375 L 17.484375 -17.484375 L 17.484375 -23.28125 L 11.65625 -23.28125 L 11.65625 -29.109375 L 5.828125 -29.109375 L 5.828125 0 L 0 0 L 0 -40.765625 L 5.828125 -40.765625 L 5.828125 -34.9375 L 11.65625 -34.9375 L 11.65625 -29.109375 L 17.484375 -29.109375 L 17.484375 -23.28125 L 23.28125 -23.28125 L 23.28125 -17.484375 Z M 29.109375 -17.484375 "/></g></g></g><g fill="#00ffff" fill-opacity="1"><g transform="translate(177.662682, 237.72123)"><g><path d="M 0 -40.765625 L 5.828125 -40.765625 L 5.828125 0 L 0 0 Z M 0 -40.765625 "/></g></g></g><g fill="#00ffff" fill-opacity="1"><g transform="translate(195.116935, 237.72123)"><g><path d="M 0 -40.765625 L 29.109375 -40.765625 L 29.109375 -34.9375 L 17.484375 -34.9375 L 17.484375 0 L 11.65625 0 L 11.65625 -34.9375 L 0 -34.9375 Z M 0 -40.765625 "/></g></g></g><g fill="#00ffff" fill-opacity="1"><g transform="translate(235.881428, 237.72123)"><g><path d="M 0 0 L 0 -11.65625 L 5.828125 -11.65625 L 5.828125 -5.828125 L 29.109375 -5.828125 L 29.109375 0 Z M 23.28125 -34.9375 L 0 -34.9375 L 0 -40.765625 L 29.109375 -40.765625 L 29.109375 -29.109375 L 23.28125 -29.109375 Z M 17.453125 -23.28125 L 17.453125 -29.109375 L 23.28125 -29.109375 L 23.28125 -23.28125 Z M 5.828125 -17.484375 L 11.65625 -17.484375 L 11.65625 -11.65625 L 5.828125 -11.65625 Z M 11.65625 -17.453125 L 11.65625 -23.28125 L 17.484375 -23.28125 L 17.484375 -17.453125 Z M 11.65625 -17.453125 "/></g></g></g><g fill="#00ffff" fill-opacity="1"><g transform="translate(276.645921, 237.72123)"><g><path d="M 5.828125 0 L 0 0 L 0 -40.765625 L 5.828125 -40.765625 L 5.828125 -23.28125 L 11.65625 -23.28125 L 11.65625 -29.109375 L 17.484375 -29.109375 L 17.484375 -17.453125 L 23.28125 -17.453125 L 23.28125 -11.65625 L 29.109375 -11.65625 L 29.109375 0 L 23.28125 0 L 23.28125 -11.65625 L 17.484375 -11.65625 L 17.484375 -17.453125 L 5.828125 -17.453125 Z M 23.28125 -34.9375 L 23.28125 -40.765625 L 29.109375 -40.765625 L 29.109375 -34.9375 Z M 17.453125 -34.9375 L 23.28125 -34.9375 L 23.28125 -29.109375 L 17.453125 -29.109375 Z M 17.453125 -34.9375 "/></g></g></g><g fill="#00ffff" fill-opacity="1"><g transform="translate(317.410415, 237.72123)"><g><path d="M 0 -40.765625 L 5.828125 -40.765625 L 5.828125 0 L 0 0 Z M 0 -40.765625 "/></g></g></g><g fill="#ffffff" fill-opacity="1"><g transform="translate(39.035158, 237.72123)"><g><path d="M 23.28125 -23.28125 L 23.28125 -17.453125 L 5.828125 -17.453125 L 5.828125 0 L 0 0 L 0 -40.765625 L 23.28125 -40.765625 L 23.28125 -34.9375 L 29.109375 -34.9375 L 29.109375 -23.28125 Z M 5.828125 -23.28125 L 23.21875 -23.28125 L 23.21875 -34.9375 L 5.828125 -34.9375 Z M 5.828125 -23.28125 "/></g></g></g><g fill="#ffffff" fill-opacity="1"><g transform="translate(79.799651, 237.72123)"><g><path d="M 5.828125 -11.65625 L 0 -11.65625 L 0 -29.109375 L 5.828125 -29.109375 L 5.828125 -34.9375 L 11.65625 -34.9375 L 11.65625 -40.765625 L 29.109375 -40.765625 L 29.109375 -34.9375 L 34.9375 -34.9375 L 34.9375 -29.109375 L 40.765625 -29.109375 L 40.765625 -11.65625 L 34.9375 -11.65625 L 34.9375 -5.828125 L 29.109375 -5.828125 L 29.109375 0 L 11.65625 0 L 11.65625 -5.828125 L 5.828125 -5.828125 Z M 11.65625 -5.890625 L 29.109375 -5.890625 L 29.109375 -11.65625 L 34.875 -11.65625 L 34.875 -29.109375 L 29.109375 -29.109375 L 29.109375 -34.875 L 11.65625 -34.875 L 11.65625 -29.109375 L 5.890625 -29.109375 L 5.890625 -11.65625 L 11.65625 -11.65625 Z M 11.65625 -5.890625 "/></g></g></g><g fill="#ffffff" fill-opacity="1"><g transform="translate(132.190837, 237.72123)"><g><path d="M 29.109375 -17.484375 L 29.109375 -40.765625 L 34.9375 -40.765625 L 34.9375 0 L 29.109375 0 L 29.109375 -11.65625 L 23.28125 -11.65625 L 23.28125 -17.484375 L 17.484375 -17.484375 L 17.484375 -23.28125 L 11.65625 -23.28125 L 11.65625 -29.109375 L 5.828125 -29.109375 L 5.828125 0 L 0 0 L 0 -40.765625 L 5.828125 -40.765625 L 5.828125 -34.9375 L 11.65625 -34.9375 L 11.65625 -29.109375 L 17.484375 -29.109375 L 17.484375 -23.28125 L 23.28125 -23.28125 L 23.28125 -17.484375 Z M 29.109375 -17.484375 "/></g></g></g><g fill="#ffffff" fill-opacity="1"><g transform="translate(178.754463, 237.72123)"><g><path d="M 0 -40.765625 L 5.828125 -40.765625 L 5.828125 0 L 0 0 Z M 0 -40.765625 "/></g></g></g><g fill="#ffffff" fill-opacity="1"><g transform="translate(196.208716, 237.72123)"><g><path d="M 0 -40.765625 L 29.109375 -40.765625 L 29.109375 -34.9375 L 17.484375 -34.9375 L 17.484375 0 L 11.65625 0 L 11.65625 -34.9375 L 0 -34.9375 Z M 0 -40.765625 "/></g></g></g><g fill="#ffffff" fill-opacity="1"><g transform="translate(236.973209, 237.72123)"><g><path d="M 0 0 L 0 -11.65625 L 5.828125 -11.65625 L 5.828125 -5.828125 L 29.109375 -5.828125 L 29.109375 0 Z M 23.28125 -34.9375 L 0 -34.9375 L 0 -40.765625 L 29.109375 -40.765625 L 29.109375 -29.109375 L 23.28125 -29.109375 Z M 17.453125 -23.28125 L 17.453125 -29.109375 L 23.28125 -29.109375 L 23.28125 -23.28125 Z M 5.828125 -17.484375 L 11.65625 -17.484375 L 11.65625 -11.65625 L 5.828125 -11.65625 Z M 11.65625 -17.453125 L 11.65625 -23.28125 L 17.484375 -23.28125 L 17.484375 -17.453125 Z M 11.65625 -17.453125 "/></g></g></g><g fill="#ffffff" fill-opacity="1"><g transform="translate(277.737703, 237.72123)"><g><path d="M 5.828125 0 L 0 0 L 0 -40.765625 L 5.828125 -40.765625 L 5.828125 -23.28125 L 11.65625 -23.28125 L 11.65625 -29.109375 L 17.484375 -29.109375 L 17.484375 -17.453125 L 23.28125 -17.453125 L 23.28125 -11.65625 L 29.109375 -11.65625 L 29.109375 0 L 23.28125 0 L 23.28125 -11.65625 L 17.484375 -11.65625 L 17.484375 -17.453125 L 5.828125 -17.453125 Z M 23.28125 -34.9375 L 23.28125 -40.765625 L 29.109375 -40.765625 L 29.109375 -34.9375 Z M 17.453125 -34.9375 L 23.28125 -34.9375 L 23.28125 -29.109375 L 17.453125 -29.109375 Z M 17.453125 -34.9375 "/></g></g></g><g fill="#ffffff" fill-opacity="1"><g transform="translate(318.502196, 237.72123)"><g><path d="M 0 -40.765625 L 5.828125 -40.765625 L 5.828125 0 L 0 0 Z M 0 -40.765625 "/></g></g></g></svg>