<svg width="42" height="48" viewBox="0 0 42 48" fill="none" xmlns="http://www.w3.org/2000/svg">
<g clip-path="url(#clip0_2085_4)">
<path fill-rule="evenodd" clip-rule="evenodd" d="M41.9293 13.8555C41.929 13.063 41.7595 12.3628 41.4168 11.7619C41.0801 11.1709 40.5759 10.6756 39.8997 10.284C37.5074 8.9046 35.1142 7.52702 32.7209 6.14944C29.5296 4.3125 26.3383 2.47556 23.1494 0.634327C21.6449 -0.23422 20.1863 -0.202555 18.693 0.67846C17.3539 1.46815 12.7817 4.09665 8.63399 6.48108L8.63366 6.48126L8.63309 6.48159C5.89869 8.05354 3.34894 9.51935 2.03191 10.2822C0.66675 11.0725 0.00246094 12.2819 0.00213281 13.854C0.00106641 17.0905 0.00106641 20.327 0.00106641 23.5636C0.00106641 26.8001 0.00106641 30.0366 0 33.2733C0 34.0483 0.162586 34.7349 0.490219 35.3268C0.827039 35.9357 1.33826 36.4446 2.03011 36.8451C3.3424 37.6051 5.87865 39.0629 8.602 40.6283L8.60462 40.6298L8.60467 40.6299C12.7602 43.0184 17.3505 45.6569 18.6923 46.4486C20.1862 47.3301 21.6449 47.3616 23.1499 46.4927C26.3837 44.6255 29.6201 42.7629 32.8565 40.9001L32.8586 40.8989C35.2065 39.5476 37.5544 38.1962 39.9015 36.8431C40.5933 36.4428 41.1045 35.9335 41.4414 35.3252C41.7685 34.7332 41.9314 34.0466 41.9314 33.2714C41.9314 33.2714 41.9314 20.3287 41.9293 13.8555ZM33.1229 19.0795V21.29H35.3334V19.0795H36.4387V21.29H38.6492V22.3953H36.4387V24.6058H38.6492V25.711H36.4387V27.9216H35.3334V25.711H33.1229V27.9216H32.0177V25.711H29.8071V24.6058H32.0177V22.3953H29.8071V21.29H32.0177V19.0795H33.1229ZM35.3334 22.3953H33.1229V24.6058H35.3334V22.3953ZM34.571 15.7634C31.8747 11.109 26.8407 7.97766 21.0749 7.97766C12.4668 7.97766 5.48889 14.9558 5.48889 23.5635C5.48889 26.3874 6.24014 29.0357 7.55313 31.3199C10.2427 35.9989 15.291 39.1495 21.0749 39.1495L21.2485 39.1486C26.9473 39.0864 31.9123 35.9647 34.5791 31.3497L27.8056 27.4257C27.8164 27.4068 27.8272 27.3879 27.8378 27.369L27.8055 27.4256L27.8056 27.4257C26.4662 29.7549 23.9543 31.3247 21.0749 31.3247C18.19 31.3247 15.6751 29.7494 14.3373 27.414C13.6875 26.2791 13.3138 24.9652 13.3138 23.5635C13.3138 19.2773 16.7887 15.8025 21.0749 15.8025L21.1635 15.803C23.9741 15.8345 26.4244 17.3617 27.7609 19.6247L34.5447 15.7186L34.571 15.7634Z" fill="url(#paint0_linear_2085_4)"/>
</g>
<defs>
<linearGradient id="paint0_linear_2085_4" x1="20.9657" y1="0" x2="20.9657" y2="47.1274" gradientUnits="userSpaceOnUse">
<stop stop-color="#FDFDFD"/>
<stop offset="1" stop-color="white" stop-opacity="0.18"/>
</linearGradient>
<clipPath id="clip0_2085_4">
<rect width="42" height="47.25" fill="white"/>
</clipPath>
</defs>
</svg>
