<svg xmlns="http://www.w3.org/2000/svg" xmlns:xlink="http://www.w3.org/1999/xlink" width="500" zoomAndPan="magnify" viewBox="0 0 375 374.999991" height="500" preserveAspectRatio="xMidYMid meet" version="1.0"><defs><g/></defs><g fill="#ffffff" fill-opacity="1"><g transform="translate(68.402344, 247.124984)"><g><path d="M 20 4 C 30.199219 4 39.597656 -2.601562 44.199219 -11.601562 C 45.398438 -13.601562 46.199219 -15.800781 46.597656 -18.199219 C 48 -23.597656 47.597656 -28.199219 47 -33.597656 C 46.398438 -39.800781 45 -45.800781 43.199219 -51.597656 L 42.597656 -53.597656 L 64.597656 -59.199219 L 65.796875 -59.796875 C 66 -60 66.398438 -61 65.796875 -61.199219 C 65.199219 -61.398438 64.796875 -61.597656 64.597656 -61.597656 C 64.199219 -61.796875 63.597656 -61.796875 62.796875 -61.796875 C 61.398438 -61.796875 60 -61.398438 58.597656 -61.199219 C 53 -59.796875 47 -58.597656 41.199219 -57.199219 C 39.800781 -61.199219 38.398438 -65.199219 36.800781 -69.199219 C 34.398438 -75.597656 32.597656 -81.996094 30.800781 -88.597656 C 29.398438 -93.597656 29 -98.597656 29.597656 -103.996094 C 30.398438 -114.398438 37 -122.398438 48 -122.996094 C 52 -122.996094 54.398438 -117.996094 54.597656 -114.597656 C 54.796875 -110.796875 53.796875 -107.199219 52 -103.597656 L 50 -99.996094 C 49.796875 -99.398438 50 -98.796875 50.597656 -98.398438 C 51.199219 -97.996094 51.796875 -97.796875 52.398438 -97.796875 C 52.597656 -97.796875 53 -97.996094 53.597656 -98.199219 C 56.796875 -100.597656 58.398438 -103.597656 59.796875 -107.398438 C 61.796875 -113.597656 60.597656 -118.597656 56 -122.796875 C 52.199219 -125.996094 47.398438 -127.597656 42.597656 -127.597656 C 32.199219 -127.597656 24.800781 -121.796875 21.800781 -111.597656 C 20.199219 -106.597656 20 -101.199219 21 -95.796875 C 22.800781 -85.199219 26.597656 -74.597656 30.597656 -64.398438 C 31.597656 -61.398438 32.597656 -58.398438 33.398438 -55.199219 C 18.398438 -51.398438 5.199219 -45.800781 -1 -33.199219 C -2.398438 -29.398438 -3.199219 -25.597656 -3 -22.199219 C -2.800781 -17.199219 -1.601562 -12.398438 0.199219 -8 C 4.800781 0.601562 9.800781 4 20 4 Z M 18 0.800781 C 12.199219 0.800781 8.199219 -5 6 -9.800781 C 5 -12.398438 4.398438 -14.800781 3.800781 -17.800781 C 2.800781 -22.398438 3.398438 -26.597656 5 -30.800781 C 10.199219 -42.800781 19 -46.800781 34.597656 -51.398438 C 36.199219 -44.398438 37.199219 -38.199219 37.800781 -31.199219 C 38 -28 37.800781 -25.800781 37.597656 -23.398438 C 37 -13.199219 29.800781 -2.601562 20.398438 0.398438 C 19.398438 0.601562 18.597656 0.800781 18 0.800781 Z M 18 0.800781 "/></g></g></g><g fill="#ffffff" fill-opacity="1"><g transform="translate(124.400834, 247.124984)"><g><path d="M 5.199219 -22.597656 C 7.800781 -22.597656 10.199219 -24.398438 12 -26 C 15.800781 -30 19.199219 -34.199219 22.199219 -38.800781 C 24 -41.800781 25.800781 -44.800781 27.597656 -47.796875 C 29.398438 -50.597656 31.199219 -53.398438 33 -56.398438 L 34.597656 -59.398438 C 35.199219 -60.199219 34.199219 -61.398438 33.199219 -61.597656 C 33 -61.796875 32.597656 -61.796875 32 -61.796875 C 31.199219 -61.796875 30.398438 -61.398438 29.597656 -60.398438 C 29 -59.597656 28.597656 -58.796875 28.199219 -58.199219 C 27.800781 -57.398438 27.398438 -56.597656 26.800781 -56 L 19.398438 -43.398438 L 14.800781 -36.800781 C 13.199219 -34.597656 11.199219 -32.800781 9 -30.597656 C 8.800781 -30.398438 8.601562 -30.398438 8.398438 -30.199219 C 8.199219 -30 8 -30 7.800781 -29.800781 C 7.601562 -29.597656 7.398438 -29.597656 7 -29.597656 C 6.398438 -29.800781 6.199219 -30 6.199219 -30.597656 C 6.398438 -32.398438 6.601562 -34 6.800781 -35.597656 C 7 -37.199219 7.199219 -38.800781 7.398438 -40.398438 C 8.398438 -45.800781 9.601562 -50.597656 11 -56 L 12.199219 -61 C 12.398438 -62.199219 12.199219 -63 11.199219 -63.398438 C 10.199219 -64 9.601562 -64.199219 9.601562 -64.199219 L 9 -64.199219 C 7.398438 -64.199219 6.601562 -63 6 -61.597656 C 1 -52 -1.398438 -42 -1.398438 -31.800781 C -1.398438 -31 -1.398438 -30.199219 -1.398438 -29.398438 C -1.398438 -28.597656 -1.199219 -27.800781 -1 -27.199219 C -0.398438 -24.199219 2.199219 -22.597656 5.199219 -22.597656 Z M 14.199219 -75 C 14.800781 -75 15.398438 -75 15.601562 -75 C 15.800781 -75 16.199219 -75.199219 16.800781 -75.398438 C 18.199219 -76.398438 18.800781 -78.996094 17.800781 -80.398438 C 17.199219 -80.996094 16.597656 -81.796875 16 -82.796875 C 15.199219 -83.796875 14.199219 -84.199219 13.199219 -84.199219 C 12.199219 -84.199219 11.398438 -83.796875 11 -82.996094 C 10.398438 -81.796875 10.199219 -80.398438 10.199219 -78.796875 C 10.199219 -77.398438 10.800781 -76.199219 12.199219 -75.597656 C 12.601562 -75.398438 13 -75.199219 13.398438 -75.199219 C 13.601562 -75.199219 14 -75.199219 14.199219 -75 Z M 14.199219 -75 "/></g></g></g><g fill="#ffffff" fill-opacity="1"><g transform="translate(149.200179, 247.124984)"><g><path d="M 47 -12 C 48.398438 -12 49.398438 -12.398438 50.199219 -13.398438 C 51.597656 -14.800781 52.597656 -16.398438 53.597656 -18 C 56.597656 -22.597656 59 -27.398438 61.597656 -32.398438 C 63.796875 -36.398438 65.796875 -40.398438 67.796875 -44.597656 C 69.796875 -48.597656 71.796875 -52.597656 73.796875 -56.597656 C 74 -57 74.398438 -57.398438 74.597656 -58 C 74.796875 -58.398438 75 -58.796875 75.199219 -59.199219 L 75.398438 -60 C 75.796875 -60.796875 75.597656 -61.398438 74.597656 -62 C 74.199219 -62.199219 73.597656 -62.398438 73 -62.398438 C 72.199219 -62.398438 71.398438 -62 70.796875 -61.199219 L 68.796875 -57.597656 C 66.199219 -52.597656 63.597656 -47.796875 61 -42.398438 C 57.597656 -35.800781 54.199219 -29.199219 50 -22.800781 C 49.398438 -22 49 -21.199219 48.398438 -20.597656 C 48 -20.199219 47.597656 -20 47.199219 -20.199219 C 46.800781 -20.199219 46.597656 -20.398438 46.597656 -20.800781 C 46.597656 -21.597656 46.597656 -22.398438 46.597656 -23.199219 C 46.597656 -23.800781 46.597656 -24.597656 46.800781 -25.199219 C 47.199219 -27 47.597656 -29 48 -31 C 48.199219 -32.800781 48.597656 -34.800781 49.199219 -36.597656 C 50.199219 -41 51.398438 -45.398438 52.796875 -49.796875 C 54 -54.199219 55.199219 -58.597656 56.398438 -63 C 56.597656 -64.199219 57 -65.398438 57.398438 -66.796875 C 57.796875 -68 58.199219 -69.199219 58.398438 -70.597656 C 59 -72.597656 59.199219 -74.796875 59.199219 -77.199219 C 59 -79.597656 56.199219 -81.398438 54 -81.398438 C 51.597656 -81.398438 48.398438 -78.199219 47 -76.398438 C 42.398438 -71.597656 38.597656 -66.199219 35.199219 -60.796875 L 31.800781 -55.597656 C 31.199219 -55 30.800781 -54.398438 30.597656 -54.199219 C 30.597656 -54 30.398438 -54 29.800781 -54 L 29.597656 -54.398438 L 29.597656 -61.597656 C 29.398438 -64 26.800781 -65.597656 24.597656 -65.597656 C 23.597656 -65.597656 22.597656 -65 21.800781 -64 L 18.800781 -60.398438 L 11.601562 -49.398438 L 11.199219 -49.398438 C 11 -49.398438 11 -49.398438 10.800781 -49.597656 C 10.199219 -51.199219 10.601562 -52.398438 11.199219 -53.796875 C 12.199219 -58.398438 13.199219 -62.597656 14 -67.199219 C 14.398438 -68.796875 14.601562 -70.398438 14.601562 -72.199219 C 14.800781 -73.597656 14 -74.398438 12.601562 -75 C 12.398438 -75.199219 12 -75.199219 11.398438 -75.199219 C 10.398438 -75.199219 9.800781 -74.796875 9.601562 -73.796875 C 9 -72.597656 8.601562 -71.398438 8.199219 -70.199219 C 7.800781 -68.796875 7.398438 -67.597656 6.800781 -66.398438 C 4.601562 -59.398438 3.398438 -52.796875 2 -45.800781 C 2 -45.199219 2 -44.597656 2 -44 C 1.800781 -43.398438 1.800781 -42.597656 2 -42 C 2.199219 -39.800781 3.199219 -38.398438 5 -37.597656 C 5.199219 -37.398438 5.601562 -37.398438 5.800781 -37.398438 C 6 -37.398438 6.199219 -37.398438 6.398438 -37.199219 C 6.800781 -37 7.398438 -37 8 -37 C 9 -37 9.800781 -37.398438 10.601562 -38.398438 C 11.199219 -39 11.601562 -39.800781 12 -40.597656 C 12.398438 -41.199219 12.800781 -42 13.398438 -42.800781 C 14.199219 -44.199219 15 -45.800781 15.800781 -47.199219 C 16.398438 -48.597656 17.199219 -50 18 -51.398438 C 18.398438 -52 18.800781 -52.796875 19.398438 -53.398438 C 19.800781 -54 20.199219 -54.597656 20.597656 -55.199219 C 20.800781 -55.398438 20.800781 -55.398438 21 -55.398438 C 21.398438 -55.199219 21.597656 -55 21.597656 -54.796875 C 21.597656 -53.398438 21.398438 -52.398438 21.199219 -51 L 20.597656 -46.398438 C 20.398438 -43.800781 21.398438 -42.199219 23.800781 -41.199219 C 24 -41 24.398438 -41 24.800781 -40.800781 C 25.199219 -40.597656 25.597656 -40.597656 26 -40.398438 L 26.800781 -40.398438 C 29.398438 -40.398438 30.800781 -43 32.199219 -45.199219 L 37.398438 -54.199219 C 39 -57.597656 46 -69.597656 49.199219 -71.597656 C 50 -71.796875 50.199219 -71.597656 49.796875 -71 C 49.597656 -70.398438 49.398438 -69.796875 49.398438 -69.199219 C 49.199219 -68.597656 49 -68 48.796875 -67.398438 C 43.398438 -53.796875 39.398438 -39.597656 38 -25.199219 C 37.597656 -22.800781 37.800781 -20.398438 38.398438 -17.800781 C 38.800781 -15.601562 40.199219 -13.800781 42.398438 -12.800781 C 43.800781 -12 45.398438 -12 47 -12 Z M 47 -12 "/></g></g></g><g fill="#ffffff" fill-opacity="1"><g transform="translate(214.798407, 247.124984)"><g><path d="M 17.398438 -19.800781 C 21.597656 -19.800781 24.398438 -20 26.800781 -23.800781 C 27.398438 -24.398438 27.597656 -24.800781 27.800781 -25.398438 C 30.199219 -30 31.199219 -35.199219 31 -40.800781 C 30.597656 -45.398438 29.199219 -49.398438 26.800781 -53.199219 C 25.800781 -54.597656 25 -55.796875 24.199219 -57.199219 C 23.800781 -58 24 -58.597656 24.800781 -59 C 27.398438 -59.199219 30 -59.398438 33.398438 -59.398438 C 35.597656 -59.398438 38 -59.398438 40.800781 -59.398438 C 43.398438 -59.199219 46.597656 -59.199219 50.199219 -59.199219 C 51.199219 -59.398438 51.398438 -60 50.796875 -61 C 50.199219 -61.796875 49 -62.398438 47.597656 -62.796875 C 43.597656 -63 39.199219 -63.199219 35.199219 -63.199219 C 31 -63.199219 27.199219 -63 24 -62.796875 C 20.597656 -62.398438 18.800781 -61.796875 18.597656 -61.199219 C 17.597656 -61 17.199219 -59.796875 17.800781 -59 C 18.800781 -57.199219 20 -55.398438 21 -53.796875 C 25.199219 -47.199219 25.800781 -40.398438 23.597656 -33 C 23.398438 -32 23 -31.199219 22.597656 -30.398438 C 22 -29.597656 21.597656 -28.800781 21.199219 -28 C 20.199219 -26.398438 19.199219 -25.199219 18 -24.597656 C 17.398438 -24.199219 17 -24 16.398438 -24 C 15.800781 -24 15.199219 -24.199219 14.601562 -24.800781 C 13.398438 -25.800781 12.398438 -27 11.398438 -28.800781 C 9.601562 -32 9 -35.597656 9.199219 -39.597656 C 9.800781 -52.199219 13.601562 -64.796875 23.199219 -73.398438 C 23.800781 -74 23.597656 -74.796875 23 -75 C 23 -75.199219 22.800781 -75.199219 22.597656 -75.199219 C 21.597656 -75.597656 20.597656 -75.796875 19.398438 -75.796875 C 17.597656 -75.796875 16 -75.199219 14.601562 -74 C 5.800781 -67.199219 0.800781 -52 0.199219 -41 L 0.199219 -39 C 0.199219 -38.800781 0.199219 -38.398438 0.398438 -38.199219 C 0.398438 -37.800781 0.398438 -37.398438 0.398438 -37.199219 C 1.398438 -29 5.800781 -23.597656 13.199219 -20.800781 C 13.800781 -20.597656 14.601562 -20.398438 15.398438 -20.199219 C 16 -20 16.800781 -20 17.398438 -19.800781 Z M 17.398438 -19.800781 "/></g></g></g><g fill="#ffffff" fill-opacity="1"><g transform="translate(255.79731, 247.124984)"><g><path d="M 28 -10.800781 C 29.398438 -10.800781 30.800781 -11.199219 32 -11.800781 C 33.398438 -12.800781 34.800781 -14 35.800781 -15.398438 L 39.398438 -20.800781 C 42 -25.398438 44.800781 -30 47.398438 -34.597656 C 50 -39 52.597656 -43.597656 55.199219 -48.199219 C 56.199219 -50 57.199219 -51.796875 58 -53.597656 C 58.796875 -55.398438 59.597656 -57.398438 60.597656 -59.199219 C 61.199219 -60.199219 60.597656 -61 59.199219 -61.199219 C 59 -61.398438 58.597656 -61.398438 58.199219 -61.398438 C 57.398438 -61.398438 56.796875 -61 56.398438 -60.398438 L 54.398438 -56.597656 C 48.199219 -44.597656 41.398438 -33.199219 33.597656 -22 C 32.800781 -21 32 -20 31 -19.199219 C 31 -19 30.800781 -19 30.199219 -19 C 30.199219 -19.199219 30.199219 -19.199219 30 -19.398438 C 29.398438 -21 30 -22.597656 30.199219 -24.199219 C 31.800781 -32.199219 33.597656 -40 35.800781 -48 L 40.597656 -66.597656 C 41 -68.597656 41.199219 -70.597656 41.199219 -72.597656 C 41 -74.398438 40.199219 -75.597656 39 -76.199219 L 37.800781 -76.796875 C 37.398438 -77 36.800781 -77.199219 36 -77.199219 C 33.398438 -77.199219 29.398438 -71.199219 28.199219 -68.796875 L 18.597656 -51 C 16 -46.398438 13 -42 10 -37.398438 C 9.800781 -37.199219 9.601562 -37 9 -36.800781 C 8.398438 -36.597656 8.199219 -37 8.199219 -38.199219 C 8.199219 -39.199219 8.199219 -40 8.398438 -40.597656 C 9 -43.199219 9.398438 -46 10 -48.796875 C 10.398438 -51.597656 11 -54.398438 11.601562 -57.199219 C 11.800781 -58.597656 12.199219 -60 12.601562 -61.398438 C 12.800781 -62.597656 13.199219 -64 13.398438 -65.398438 C 13.601562 -66.597656 13 -67.398438 12 -68 L 10.800781 -68.597656 L 10.398438 -68.597656 C 9 -68.597656 8.199219 -67.597656 7.601562 -66.199219 L 5.800781 -61.398438 C 2.800781 -52.398438 1.199219 -43.199219 0.398438 -33.800781 C 0 -30.800781 1.199219 -28.800781 3.800781 -27.597656 L 4.601562 -27.398438 C 5.601562 -27 6.601562 -26.800781 7.199219 -26.800781 C 8.800781 -26.800781 10 -27.398438 11 -28.800781 C 12 -29.800781 12.800781 -30.800781 13.398438 -32.199219 C 16.597656 -37.597656 19.800781 -43.199219 22.800781 -48.597656 L 31 -63.398438 C 31.199219 -64 31.597656 -64.398438 31.800781 -64.597656 L 32.597656 -64.597656 C 32.597656 -64.597656 32.597656 -64.398438 32.800781 -64.199219 L 31.597656 -59.796875 C 29 -51.597656 26.398438 -43.597656 24.199219 -35 C 22.398438 -28 21.597656 -22.597656 21.597656 -15.601562 C 21.800781 -14.199219 22.398438 -13.398438 23.398438 -12.800781 C 24.800781 -11.601562 26.199219 -11 28 -10.800781 Z M 28 -10.800781 "/></g></g></g></svg>