<svg xmlns="http://www.w3.org/2000/svg" xmlns:xlink="http://www.w3.org/1999/xlink" width="500" zoomAndPan="magnify" viewBox="0 0 375 374.999991" height="500" preserveAspectRatio="xMidYMid meet" version="1.0"><defs><g/></defs><g fill="#ff00ff" fill-opacity="1"><g transform="translate(15.706036, 212.951587)"><g><path d="M 56 -53.332031 L 13.332031 -53.332031 C 7.464844 -53.332031 2.667969 -48.535156 2.667969 -42.667969 L 2.667969 -32 C 2.667969 -26.132812 7.464844 -21.332031 13.332031 -21.332031 L 45.332031 -21.332031 L 45.332031 -10.667969 L 2.667969 -10.667969 L 2.667969 0 L 45.332031 0 C 51.199219 0 56 -4.800781 56 -10.667969 L 56 -21.332031 C 56 -27.199219 51.199219 -32 45.332031 -32 L 13.332031 -32 L 13.332031 -42.667969 L 56 -42.667969 Z M 56 -53.332031 "/></g></g></g><g fill="#ff00ff" fill-opacity="1"><g transform="translate(84.906005, 212.951587)"><g><path d="M 56 0 L 56 -10.667969 L 34.667969 -10.667969 L 34.667969 -42.667969 L 56 -42.667969 L 56 -53.332031 L 2.667969 -53.332031 L 2.667969 -42.667969 L 24 -42.667969 L 24 -10.667969 L 2.667969 -10.667969 L 2.667969 0 Z M 56 0 "/></g></g></g><g fill="#ff00ff" fill-opacity="1"><g transform="translate(154.105975, 212.951587)"><g><path d="M 13.332031 -53.332031 C 7.464844 -53.332031 2.667969 -48.535156 2.667969 -42.667969 L 2.667969 0 L 13.332031 0 L 13.332031 -42.667969 L 24 -42.667969 L 24 0 L 34.667969 0 L 34.667969 -42.667969 L 45.332031 -42.667969 L 45.332031 0 L 56 0 L 56 -42.667969 C 56 -48.535156 51.199219 -53.332031 45.332031 -53.332031 Z M 13.332031 -53.332031 "/></g></g></g><g fill="#ff00ff" fill-opacity="1"><g transform="translate(223.305954, 212.951587)"><g><path d="M 45.332031 0 C 51.265625 0 56 -4.867188 56 -10.667969 L 56 -42.667969 C 56 -48.535156 51.199219 -53.332031 45.332031 -53.332031 L 13.332031 -53.332031 C 7.464844 -53.332031 2.667969 -48.535156 2.667969 -42.667969 L 2.667969 -10.667969 C 2.667969 -4.800781 7.464844 0 13.332031 0 Z M 13.332031 -42.667969 L 45.332031 -42.667969 L 45.332031 -10.667969 L 13.332031 -10.667969 Z M 13.332031 -42.667969 "/></g></g></g><g fill="#ff00ff" fill-opacity="1"><g transform="translate(292.505913, 212.951587)"><g><path d="M 13.332031 0 L 13.332031 -35.132812 L 46.867188 -1.601562 C 47.867188 -0.601562 49.199219 0 50.667969 0 C 53.601562 0 56 -2.398438 56 -5.332031 L 56 -53.332031 L 45.332031 -53.332031 L 45.332031 -18.199219 L 11.800781 -51.734375 C 10.800781 -52.734375 9.464844 -53.332031 8 -53.332031 C 5.066406 -53.332031 2.667969 -50.933594 2.667969 -48 L 2.667969 0 Z M 13.332031 0 "/></g></g></g><g fill="#00ffff" fill-opacity="1"><g transform="translate(23.825785, 214.826176)"><g><path d="M 56 -53.332031 L 13.332031 -53.332031 C 7.464844 -53.332031 2.667969 -48.535156 2.667969 -42.667969 L 2.667969 -32 C 2.667969 -26.132812 7.464844 -21.332031 13.332031 -21.332031 L 45.332031 -21.332031 L 45.332031 -10.667969 L 2.667969 -10.667969 L 2.667969 0 L 45.332031 0 C 51.199219 0 56 -4.800781 56 -10.667969 L 56 -21.332031 C 56 -27.199219 51.199219 -32 45.332031 -32 L 13.332031 -32 L 13.332031 -42.667969 L 56 -42.667969 Z M 56 -53.332031 "/></g></g></g><g fill="#00ffff" fill-opacity="1"><g transform="translate(93.025755, 214.826176)"><g><path d="M 56 0 L 56 -10.667969 L 34.667969 -10.667969 L 34.667969 -42.667969 L 56 -42.667969 L 56 -53.332031 L 2.667969 -53.332031 L 2.667969 -42.667969 L 24 -42.667969 L 24 -10.667969 L 2.667969 -10.667969 L 2.667969 0 Z M 56 0 "/></g></g></g><g fill="#00ffff" fill-opacity="1"><g transform="translate(162.225724, 214.826176)"><g><path d="M 13.332031 -53.332031 C 7.464844 -53.332031 2.667969 -48.535156 2.667969 -42.667969 L 2.667969 0 L 13.332031 0 L 13.332031 -42.667969 L 24 -42.667969 L 24 0 L 34.667969 0 L 34.667969 -42.667969 L 45.332031 -42.667969 L 45.332031 0 L 56 0 L 56 -42.667969 C 56 -48.535156 51.199219 -53.332031 45.332031 -53.332031 Z M 13.332031 -53.332031 "/></g></g></g><g fill="#00ffff" fill-opacity="1"><g transform="translate(231.425704, 214.826176)"><g><path d="M 45.332031 0 C 51.265625 0 56 -4.867188 56 -10.667969 L 56 -42.667969 C 56 -48.535156 51.199219 -53.332031 45.332031 -53.332031 L 13.332031 -53.332031 C 7.464844 -53.332031 2.667969 -48.535156 2.667969 -42.667969 L 2.667969 -10.667969 C 2.667969 -4.800781 7.464844 0 13.332031 0 Z M 13.332031 -42.667969 L 45.332031 -42.667969 L 45.332031 -10.667969 L 13.332031 -10.667969 Z M 13.332031 -42.667969 "/></g></g></g><g fill="#00ffff" fill-opacity="1"><g transform="translate(300.625663, 214.826176)"><g><path d="M 13.332031 0 L 13.332031 -35.132812 L 46.867188 -1.601562 C 47.867188 -0.601562 49.199219 0 50.667969 0 C 53.601562 0 56 -2.398438 56 -5.332031 L 56 -53.332031 L 45.332031 -53.332031 L 45.332031 -18.199219 L 11.800781 -51.734375 C 10.800781 -52.734375 9.464844 -53.332031 8 -53.332031 C 5.066406 -53.332031 2.667969 -50.933594 2.667969 -48 L 2.667969 0 Z M 13.332031 0 "/></g></g></g><g fill="#ffffff" fill-opacity="1"><g transform="translate(19.765911, 213.888883)"><g><path d="M 56 -53.332031 L 13.332031 -53.332031 C 7.464844 -53.332031 2.667969 -48.535156 2.667969 -42.667969 L 2.667969 -32 C 2.667969 -26.132812 7.464844 -21.332031 13.332031 -21.332031 L 45.332031 -21.332031 L 45.332031 -10.667969 L 2.667969 -10.667969 L 2.667969 0 L 45.332031 0 C 51.199219 0 56 -4.800781 56 -10.667969 L 56 -21.332031 C 56 -27.199219 51.199219 -32 45.332031 -32 L 13.332031 -32 L 13.332031 -42.667969 L 56 -42.667969 Z M 56 -53.332031 "/></g></g></g><g fill="#ffffff" fill-opacity="1"><g transform="translate(88.96588, 213.888883)"><g><path d="M 56 0 L 56 -10.667969 L 34.667969 -10.667969 L 34.667969 -42.667969 L 56 -42.667969 L 56 -53.332031 L 2.667969 -53.332031 L 2.667969 -42.667969 L 24 -42.667969 L 24 -10.667969 L 2.667969 -10.667969 L 2.667969 0 Z M 56 0 "/></g></g></g><g fill="#ffffff" fill-opacity="1"><g transform="translate(158.165849, 213.888883)"><g><path d="M 13.332031 -53.332031 C 7.464844 -53.332031 2.667969 -48.535156 2.667969 -42.667969 L 2.667969 0 L 13.332031 0 L 13.332031 -42.667969 L 24 -42.667969 L 24 0 L 34.667969 0 L 34.667969 -42.667969 L 45.332031 -42.667969 L 45.332031 0 L 56 0 L 56 -42.667969 C 56 -48.535156 51.199219 -53.332031 45.332031 -53.332031 Z M 13.332031 -53.332031 "/></g></g></g><g fill="#ffffff" fill-opacity="1"><g transform="translate(227.365829, 213.888883)"><g><path d="M 45.332031 0 C 51.265625 0 56 -4.867188 56 -10.667969 L 56 -42.667969 C 56 -48.535156 51.199219 -53.332031 45.332031 -53.332031 L 13.332031 -53.332031 C 7.464844 -53.332031 2.667969 -48.535156 2.667969 -42.667969 L 2.667969 -10.667969 C 2.667969 -4.800781 7.464844 0 13.332031 0 Z M 13.332031 -42.667969 L 45.332031 -42.667969 L 45.332031 -10.667969 L 13.332031 -10.667969 Z M 13.332031 -42.667969 "/></g></g></g><g fill="#ffffff" fill-opacity="1"><g transform="translate(296.565788, 213.888883)"><g><path d="M 13.332031 0 L 13.332031 -35.132812 L 46.867188 -1.601562 C 47.867188 -0.601562 49.199219 0 50.667969 0 C 53.601562 0 56 -2.398438 56 -5.332031 L 56 -53.332031 L 45.332031 -53.332031 L 45.332031 -18.199219 L 11.800781 -51.734375 C 10.800781 -52.734375 9.464844 -53.332031 8 -53.332031 C 5.066406 -53.332031 2.667969 -50.933594 2.667969 -48 L 2.667969 0 Z M 13.332031 0 "/></g></g></g></svg>